<?xml version="1.0" encoding="utf-8"?>
<!-- Generator: Adobe Illustrator 16.0.0, SVG Export Plug-In . SVG Version: 6.00 Build 0)  -->
<!DOCTYPE svg PUBLIC "-//W3C//DTD SVG 1.1//EN" "http://www.w3.org/Graphics/SVG/1.1/DTD/svg11.dtd">
<svg version="1.1" id="svg4987" xmlns:svg="http://www.w3.org/2000/svg"
	 xmlns="http://www.w3.org/2000/svg" xmlns:xlink="http://www.w3.org/1999/xlink" x="0px" y="0px" width="125.59px"
	 height="75.144px" viewBox="0.205 0.428 125.59 75.144" enable-background="new 0.205 0.428 125.59 75.144" xml:space="preserve">
<g id="layer1" transform="translate(-457.20465,-631.07671)">
	<path id="path618" fill="#0066CB" d="M520.205,696.926c7.598-6.875,12.347-16.811,12.347-27.854
		c0-11.042-4.749-20.97-12.347-27.846c-6.648-6.044-15.531-9.722-25.196-9.722c-20.783,0-37.599,16.819-37.599,37.568
		c0,20.757,16.816,37.576,37.599,37.576C504.673,706.649,513.556,702.963,520.205,696.926"/>
	<path id="path620" fill="#0066CB" d="M520.205,696.926c7.598-6.875,12.347-16.811,12.347-27.854
		c0-11.042-4.749-20.97-12.347-27.846"/>
	<path id="path622" fill="none" stroke="#0066CB" stroke-width="0.3097" d="M520.205,696.926
		c7.598-6.875,12.347-16.811,12.347-27.854c0-11.042-4.749-20.97-12.347-27.846"/>
	<path id="path624" fill="#CC0001" d="M545.457,631.505c-9.721,0-18.604,3.678-25.252,9.722c-1.341,1.236-2.626,2.564-3.799,3.983
		h7.598c1.062,1.259,2.012,2.587,2.85,3.976h-13.297c-0.782,1.274-1.508,2.602-2.179,3.976h17.654
		c0.614,1.29,1.117,2.617,1.564,3.983h-20.783c-0.447,1.29-0.838,2.618-1.117,3.976h23.018c0.559,2.564,0.838,5.227,0.838,7.952
		c0,4.173-0.671,8.188-1.956,11.935h-20.782c0.447,1.365,0.95,2.693,1.564,3.982h17.654c-0.671,1.375-1.341,2.702-2.179,3.977
		h-13.297c0.838,1.389,1.844,2.717,2.85,3.977h7.598c-1.173,1.418-2.458,2.746-3.799,3.982c6.648,6.037,15.531,9.723,25.252,9.723
		c20.727,0,37.543-16.819,37.543-37.576C583,648.324,566.183,631.505,545.457,631.505"/>
	<path id="path626" fill="#231F20" d="M579.033,689.944h0.168c0.057,0,0.111,0.008,0.111-0.016c0.057-0.03,0.112-0.076,0.112-0.121
		c0-0.047-0.056-0.092-0.112-0.115c0-0.023-0.111-0.016-0.111-0.016h-0.168V689.944L579.033,689.944z M579.033,690.554h-0.223
		v-1.068h0.447c0.111,0,0.167,0,0.279,0.054c0.056,0.061,0.111,0.16,0.111,0.268c0,0.121-0.056,0.229-0.168,0.273l0.168,0.474
		h-0.279l-0.111-0.427h-0.225V690.554L579.033,690.554z M579.201,690.944c0.503,0,0.95-0.412,0.95-0.924s-0.447-0.924-0.95-0.924
		c-0.502,0-0.894,0.412-0.894,0.924S578.699,690.944,579.201,690.944z M577.972,690.02c0-0.672,0.559-1.213,1.229-1.213
		c0.671,0,1.229,0.541,1.229,1.213s-0.559,1.213-1.229,1.213C578.531,691.233,577.972,690.692,577.972,690.02"/>
	<path id="path628" fill="#231F20" d="M489.142,679.528h-4.749l2.793-14.645l-6.425,14.645h-3.911l-0.782-14.561l-3.128,14.561
		h-4.302l3.631-19.047h7.431l0.111,11.79l5.14-11.79h7.877L489.142,679.528"/>
	<path id="path630" fill="#231F20" d="M541.378,679.336c-1.285,0.352-2.291,0.504-3.352,0.504c-2.402,0-3.688-1.198-3.688-3.403
		c0-0.435,0-0.9,0.111-1.39l0.279-1.518l0.224-1.221l2.179-11.829h4.637l-0.67,3.556h2.402l-0.67,3.762h-2.402l-1.229,6.464
		c-0.056,0.289-0.056,0.496-0.056,0.641c0,0.801,0.447,1.152,1.564,1.152c0.559,0,0.949-0.045,1.285-0.145L541.378,679.336"/>
	<path id="path632" fill="#231F20" d="M522.831,668.928c0,1.961,1.062,3.305,3.575,4.319c1.9,0.779,2.234,1.008,2.234,1.71
		c0,0.97-0.838,1.403-2.736,1.403c-1.397,0-2.738-0.189-4.246-0.617l-0.615,3.578l0.168,0.031l0.894,0.16
		c0.279,0.046,0.671,0.092,1.229,0.137c1.117,0.084,2.011,0.131,2.625,0.131c4.973,0,7.264-1.641,7.264-5.174
		c0-2.122-0.95-3.373-3.297-4.313c-2.011-0.786-2.234-0.954-2.234-1.678c0-0.84,0.782-1.267,2.291-1.267
		c0.949,0,2.234,0.092,3.407,0.237l0.671-3.587c-1.229-0.168-3.073-0.305-4.135-0.305
		C524.619,663.693,522.775,666.074,522.831,668.928"/>
	<path id="path634" fill="#231F20" d="M501.098,672.629c-0.502-0.054-0.726-0.068-1.062-0.068c-2.625,0-3.966,0.793-3.966,2.357
		c0,0.961,0.67,1.58,1.676,1.58C499.645,676.499,501.042,674.919,501.098,672.629L501.098,672.629z M504.282,679.528h-3.911
		l0.112-1.61c-1.229,1.274-2.793,1.877-4.917,1.877c-2.57,0-4.302-1.725-4.302-4.228c0-3.777,3.017-5.975,8.212-5.975
		c0.559,0,1.229,0.037,1.9,0.121c0.167-0.511,0.223-0.732,0.223-1.007c0-1.03-0.838-1.412-3.017-1.412
		c-1.341,0-2.849,0.168-3.911,0.435l-0.615,0.16l-0.447,0.099l0.67-3.479c2.346-0.596,3.854-0.824,5.586-0.824
		c4.022,0,6.146,1.572,6.146,4.548c0,0.763-0.056,1.343-0.391,3.068l-0.95,5.494l-0.167,0.984l-0.112,0.786l-0.112,0.542V679.528"/>
	<path id="path636" fill="#231F20" d="M517.356,669.973c0-0.32,0.056-0.587,0.056-0.786c0-1.259-0.838-2-2.235-2
		c-1.508,0-2.57,0.992-2.961,2.777L517.356,669.973L517.356,669.973z M519.646,679.192c-1.62,0.428-3.185,0.633-4.805,0.625
		c-5.251,0-7.933-2.381-7.933-6.936c0-5.319,3.464-9.234,8.157-9.234c3.854,0,6.313,2.19,6.313,5.631
		c0,1.146-0.168,2.251-0.615,3.823h-9.274c-0.056,0.236-0.056,0.344-0.056,0.488c0,1.793,1.397,2.709,4.134,2.709
		c1.676,0,3.185-0.297,4.861-0.977L519.646,679.192"/>
	<path id="path638" fill="#231F20" d="M564.787,670.653c0-1.618-0.67-3.152-2.569-3.152c-2.402,0-3.854,2.824-3.854,5.311
		c0,2.099,1.005,3.511,2.682,3.479c1.005,0,3.184-1.381,3.575-3.793C564.731,671.942,564.787,671.325,564.787,670.653z
		 M569.536,672.506c-0.671,5.151-4.302,7.434-9.106,7.434c-5.252,0-7.375-3.205-7.375-7.135c0-5.495,3.576-9.211,9.163-9.211
		c4.86,0,7.431,3.06,7.431,6.991C569.648,671.538,569.648,671.606,569.536,672.506"/>
	<path id="path640" fill="#FFFFFF" d="M571.1,677.147h0.167c0,0,0.057,0,0.112-0.023s0.056-0.076,0.056-0.122
		c0-0.038,0-0.084-0.056-0.106c0-0.023-0.112-0.023-0.167-0.023H571.1V677.147L571.1,677.147z M571.1,677.75h-0.224v-1.068h0.447
		c0.056,0,0.168,0.008,0.279,0.062c0.056,0.053,0.111,0.16,0.111,0.267c0,0.114-0.056,0.229-0.167,0.274l0.167,0.466h-0.279
		l-0.168-0.42H571.1V677.75L571.1,677.75z M571.267,678.139c0.504,0,0.895-0.412,0.895-0.924c0-0.504-0.391-0.916-0.895-0.916
		c-0.502,0-0.949,0.412-0.949,0.916C570.318,677.727,570.765,678.139,571.267,678.139z M570.039,677.215
		c0-0.664,0.559-1.205,1.229-1.205c0.671,0,1.229,0.541,1.229,1.205c0,0.672-0.559,1.213-1.229,1.213
		C570.597,678.428,570.039,677.887,570.039,677.215"/>
	<path id="path642" fill="#FFFFFF" d="M490.315,678.428h-4.693l2.793-14.644l-6.425,14.644h-4.246l-0.782-14.552l-2.793,14.552
		h-4.246l3.631-19.047h7.318l0.335,11.798l5.196-11.798h7.598L490.315,678.428"/>
	<path id="path644" fill="#FFFFFF" d="M542.552,678.246c-1.285,0.351-2.291,0.503-3.353,0.503c-2.402,0-3.688-1.205-3.688-3.402
		c0-0.436,0.056-0.9,0.112-1.389l0.279-1.52l0.223-1.229l2.18-11.828h4.637l-0.67,3.556h2.402l-0.671,3.77h-2.402l-1.229,6.463
		c-0.056,0.283-0.056,0.496-0.056,0.642c0,0.802,0.503,1.145,1.62,1.145c0.503,0,0.895-0.046,1.229-0.146L542.552,678.246"/>
	<path id="path646" fill="#231F20" d="M554.563,667.386l-0.111-0.488l0.95-2.427c-0.225-0.023-0.336-0.03-0.336-0.045
		c-0.279-0.054-0.391-0.084-0.447-0.084c-0.111-0.031-0.279-0.038-0.446-0.038c-1.564,0-2.626,0.679-4.079,2.511l0.504-2.755h-4.861
		l-2.85,15.468h4.638c0.614-3.549,0.894-5.57,1.285-7.25c0.614-2.785,2.682-4.052,4.19-3.77c0.167,0.031,0.279,0.031,0.502,0.115
		l0.279,0.106L554.563,667.386"/>
	<path id="path648" fill="#FFFFFF" d="M556.183,663.067c-0.391-0.153-0.447-0.153-0.502-0.168c-0.225-0.054-0.392-0.084-0.392-0.092
		c-0.167-0.023-0.335-0.038-0.503-0.038c-1.508,0-2.625,0.687-4.078,2.519l0.447-2.351h-4.246l-2.85,15.491h4.693
		c1.676-9.47,2.402-11.133,4.637-11.133c0.168,0,0.335,0.015,0.559,0.038l0.559,0.114L556.183,663.067"/>
	<path id="path650" fill="#FFFFFF" d="M524.003,667.837c0,1.953,1.117,3.304,3.632,4.319c1.899,0.771,2.179,1,2.179,1.71
		c0,0.961-0.838,1.396-2.682,1.396c-1.453,0-2.738-0.191-4.246-0.611l-0.67,3.572l0.223,0.037l0.838,0.152
		c0.279,0.055,0.727,0.1,1.285,0.139c1.117,0.084,1.955,0.129,2.57,0.129c5.027,0,7.318-1.633,7.318-5.166
		c0-2.129-0.949-3.373-3.352-4.312c-1.955-0.786-2.18-0.961-2.18-1.687c0-0.832,0.783-1.259,2.291-1.259
		c0.949,0,2.179,0.084,3.408,0.229l0.67-3.586c-1.229-0.168-3.072-0.306-4.189-0.306
		C525.847,662.594,524.003,664.975,524.003,667.837"/>
	<path id="path652" fill="#FFFFFF" d="M502.104,671.53c-0.503-0.053-0.727-0.061-1.062-0.061c-2.626,0-3.967,0.793-3.967,2.357
		c0,0.962,0.615,1.58,1.676,1.58C500.651,675.407,501.992,673.819,502.104,671.53L502.104,671.53z M505.511,678.428h-3.911
		l0.112-1.602c-1.173,1.273-2.793,1.869-4.917,1.869c-2.514,0-4.246-1.725-4.246-4.228c0-3.771,3.017-5.975,8.212-5.975
		c0.503,0,1.173,0.045,1.899,0.122c0.112-0.512,0.167-0.725,0.167-1.007c0-1.023-0.838-1.404-3.017-1.404
		c-1.341,0-2.85,0.16-3.855,0.427l-0.67,0.168l-0.391,0.1l0.615-3.488c2.346-0.595,3.854-0.816,5.586-0.816
		c4.022,0,6.146,1.572,6.146,4.541c0,0.763-0.056,1.343-0.335,3.067l-1.006,5.503l-0.167,0.984l-0.112,0.786l-0.056,0.533
		L505.511,678.428"/>
	<path id="path654" fill="#FFFFFF" d="M518.361,668.882c0-0.328,0-0.588,0-0.794c0-1.259-0.782-1.992-2.179-1.992
		c-1.508,0-2.57,0.984-3.017,2.778L518.361,668.882L518.361,668.882z M520.82,678.1c-1.565,0.42-3.129,0.626-4.75,0.626
		c-5.251,0-7.989-2.381-7.989-6.944c0-5.311,3.463-9.226,8.156-9.226c3.855,0,6.313,2.19,6.313,5.624c0,1.145-0.168,2.259-0.56,3.83
		h-9.273c-0.056,0.237-0.056,0.344-0.056,0.488c0,1.794,1.396,2.71,4.078,2.71c1.676,0,3.185-0.306,4.86-0.985L520.82,678.1"/>
	<path id="path656" fill="#FFFFFF" d="M565.904,669.424c0-1.618-0.67-3.151-2.569-3.151c-2.402,0-3.854,2.823-3.854,5.311
		c0,2.106,1.006,3.519,2.682,3.487c1.006,0,3.184-1.381,3.575-3.793C565.849,670.713,565.904,670.096,565.904,669.424z
		 M570.765,671.409c-0.727,5.15-4.303,7.439-9.106,7.439c-5.308,0-7.431-3.213-7.431-7.143c0-5.487,3.631-9.21,9.219-9.21
		c4.859,0,7.43,3.06,7.43,6.99C570.877,670.446,570.877,670.508,570.765,671.409"/>
</g>
</svg>
